<svg width="61" height="60" viewBox="0 0 61 60" fill="none" xmlns="http://www.w3.org/2000/svg">
<g clip-path="url(#clip0)">
<path d="M47.6718 7.33899L53.5835 23.2081L43.9773 26.5807L37.4414 11.9178L47.6718 7.33899Z" fill="#FFD0BB"/>
<path d="M18.0938 11.9178L19.134 29.5578L24.1293 31.8406L29.1396 31.4406V11.9178H18.0938Z" fill="#FFD0BB"/>
<path d="M29.1407 40.0827V31.4407H26.8392C24.1574 31.4407 21.5146 30.7949 19.1351 29.5579L10.2416 33.2313C9.64952 33.4757 9.01473 33.6009 8.37398 33.6L6.5742 33.5977C4.48501 33.5945 2.62193 34.9118 1.92844 36.8827L1.17578 39.0209L5.25739 40.0827H29.1407Z" fill="#75CFB8"/>
<path d="M57.9029 30.6926L53.5824 23.2082L51.589 24.359C49.2664 25.7001 46.6552 26.4619 43.9757 26.5807L38.1099 34.2082C37.7196 34.716 37.233 35.142 36.6775 35.4617L35.1176 36.3593C33.3068 37.4014 32.3519 39.4736 32.7367 41.5275L33.1537 43.7557L37.2197 42.6343L57.9029 30.6926Z" fill="#75CFB8"/>
<path d="M0.898973 43.674L5.06773 44.6785C5.15808 44.7001 5.25028 44.7111 5.34292 44.7111H29.1391C29.7876 44.7111 30.3133 44.185 30.3133 43.5369V11.9178C30.3133 11.2697 29.7876 10.7437 29.1391 10.7437C28.4906 10.7437 27.9649 11.2697 27.9649 11.9178V30.2665H26.8375C24.5741 30.2665 22.3161 29.762 20.265 28.8052L19.2655 11.849C19.227 11.2019 18.6697 10.707 18.0239 10.7459C17.3768 10.784 16.8828 11.3399 16.9213 11.9871L17.912 28.7919L9.79192 32.1456C9.56305 32.2401 9.3273 32.3107 9.08742 32.3575C9.08375 32.3584 9.08054 32.3589 9.07687 32.3594C8.84846 32.4034 8.61546 32.4259 8.37971 32.4259C8.37787 32.4259 8.37604 32.4259 8.37421 32.4259L6.57443 32.4236C6.57167 32.4236 6.56892 32.4236 6.56571 32.4236C3.98529 32.4236 1.6764 34.0578 0.819166 36.4928L0.0665056 38.6311C0.0220157 38.7577 0.00137598 38.8893 0.00137598 39.0209C0.000917319 39.0209 0.00045866 39.0209 0 39.0209V42.5329C0 43.0755 0.371514 43.547 0.898973 43.674ZM5.48236 42.3627L2.34834 41.6078V40.5395L4.9604 41.2193C5.05672 41.2445 5.15625 41.2569 5.25624 41.2569H27.9649V42.3627H5.48236ZM3.03403 37.2725C3.56103 35.7759 4.97967 34.7714 6.56571 34.7714H6.57121L8.37099 34.7742H8.37971C8.54895 34.7742 8.71682 34.7655 8.88423 34.7517L10.7129 36.5809C10.9422 36.8097 11.2427 36.9244 11.5431 36.9244C11.8435 36.9244 12.1444 36.8097 12.3733 36.5809C12.8319 36.1222 12.8319 35.3787 12.3733 34.9201L11.4536 34L12.9195 33.3946L14.762 35.237C14.9913 35.4663 15.2917 35.581 15.5921 35.581C15.8926 35.581 16.193 35.4663 16.4223 35.237C16.881 34.7788 16.881 34.0353 16.4223 33.5766L15.2697 32.424L16.3723 31.9686L18.1941 33.7904C18.4234 34.0197 18.7239 34.1344 19.0243 34.1344C19.3247 34.1344 19.6251 34.0197 19.8545 33.7904C20.3131 33.3322 20.3131 32.5887 19.8545 32.13L18.7225 30.9981L19.0871 30.8472C21.4965 32.0048 24.164 32.6148 26.8375 32.6148H27.9649V38.9086H5.40622L2.70563 38.2059L3.03403 37.2725Z" fill="#2D2D2D"/>
<path d="M31.9976 43.9717C32.0224 44.1033 32.0701 44.228 32.1357 44.3418C32.1357 44.3418 32.1352 44.3423 32.1348 44.3423L33.891 47.3836C34.1047 47.7542 34.4964 47.9712 34.9078 47.9712C35.0184 47.9712 35.1303 47.9551 35.2404 47.923L39.3527 46.708C39.4412 46.6819 39.527 46.6452 39.6068 46.5989L58.5866 35.6406C59.2934 35.2328 59.7988 34.5742 60.0098 33.7862C60.2208 32.9982 60.1126 32.1749 59.7048 31.4686L58.9178 30.1055L54.6458 22.7068L48.7685 6.92894C48.5424 6.32122 47.8664 6.01208 47.2586 6.23866C46.6509 6.46478 46.3418 7.14084 46.5679 7.74856L52.1333 22.688L50.9999 23.3421C49.0781 24.4516 46.9188 25.1386 44.7108 25.3505L38.5102 11.4399C38.246 10.8477 37.552 10.5812 36.9599 10.8454C36.3678 11.1096 36.1013 11.8036 36.3655 12.3962L42.6161 26.4192L37.1773 33.4927C37.0273 33.6871 36.8604 33.8651 36.6778 34.0247C36.6728 34.0284 36.6682 34.032 36.6636 34.0362C36.4865 34.1889 36.2953 34.3256 36.0898 34.4435L34.5299 35.3415C32.2903 36.6304 31.1046 39.2034 31.5807 41.7435L31.9976 43.9717ZM57.7418 33.1785C57.6927 33.3606 57.5762 33.5128 57.4124 33.6073L38.5537 44.4954L35.4619 45.4086L34.928 44.4835L37.5295 43.7662C37.6259 43.7391 37.7185 43.7006 37.8047 43.6511L57.4711 32.2965L57.6711 32.6428C57.7656 32.806 57.7904 32.9964 57.7418 33.1785ZM35.7009 37.3771L37.2608 36.479C37.4103 36.3932 37.5543 36.3006 37.6947 36.2033L40.1925 36.8725C40.2943 36.9 40.3966 36.9129 40.4971 36.9129C41.0158 36.9129 41.4901 36.5671 41.6309 36.0424C41.7987 35.4163 41.4268 34.7723 40.8002 34.6045L39.5435 34.2678L40.5108 33.0102L43.0275 33.6844C43.1293 33.7119 43.2316 33.7252 43.332 33.7252C43.8503 33.7252 44.325 33.3789 44.4654 32.8542C44.6333 32.2281 44.2617 31.5842 43.6352 31.4163L42.0606 30.9943L42.7881 30.049L45.2768 30.7159C45.3786 30.743 45.4809 30.7563 45.5813 30.7563C46.0996 30.7563 46.5743 30.41 46.7147 29.8853C46.8825 29.2592 46.511 28.6153 45.8845 28.4474L44.3379 28.0332L44.5787 27.7204C47.244 27.5186 49.8588 26.7128 52.1745 25.3758L53.1506 24.8121L56.2974 30.2628L36.7608 41.5421L34.0712 42.2838L33.8887 41.311C33.5961 39.7497 34.3244 38.1692 35.7009 37.3771Z" fill="#2D2D2D"/>
<path d="M12.759 49.5967H1.17417C0.525624 49.5967 0 50.1228 0 50.7708C0 51.4194 0.525624 51.945 1.17417 51.945H12.759C13.4075 51.945 13.9332 51.4194 13.9332 50.7708C13.9332 50.1228 13.4075 49.5967 12.759 49.5967Z" fill="#2D2D2D"/>
<path d="M18.6703 49.5967C18.3616 49.5967 18.0589 49.7224 17.8401 49.9407C17.6218 50.159 17.4961 50.4617 17.4961 50.7708C17.4961 51.0795 17.6218 51.3827 17.8401 51.601C18.0589 51.8193 18.3616 51.945 18.6703 51.945C18.9794 51.945 19.2821 51.8193 19.5004 51.601C19.7188 51.3827 19.8444 51.0795 19.8444 50.7708C19.8444 50.4617 19.7188 50.159 19.5004 49.9407C19.2821 49.7224 18.9794 49.5967 18.6703 49.5967Z" fill="#2D2D2D"/>
<path d="M58.9387 46.8888H47.3539C46.7053 46.8888 46.1797 47.4149 46.1797 48.063C46.1797 48.7115 46.7053 49.2371 47.3539 49.2371H58.9387C59.5872 49.2371 60.1128 48.7115 60.1128 48.063C60.1128 47.4149 59.5872 46.8888 58.9387 46.8888Z" fill="#2D2D2D"/>
<path d="M41.6418 51.5928H30.057C29.4084 51.5928 28.8828 52.1189 28.8828 52.7669C28.8828 53.4155 29.4084 53.9411 30.057 53.9411H41.6418C42.2903 53.9411 42.816 53.4155 42.816 52.7669C42.816 52.1189 42.2903 51.5928 41.6418 51.5928Z" fill="#2D2D2D"/>
</g>
<defs>
<clipPath id="clip0">
<rect width="60.1173" height="60" fill="white"/>
</clipPath>
</defs>
</svg>
