<?xml version="1.0" encoding="iso-8859-1"?>
<!-- Generator: Adobe Illustrator 19.0.0, SVG Export Plug-In . SVG Version: 6.00 Build 0)  -->
<svg version="1.1" id="Capa_1" xmlns="http://www.w3.org/2000/svg" xmlns:xlink="http://www.w3.org/1999/xlink" x="0px" y="0px"
	 viewBox="0 0 512 512" style="enable-background:new 0 0 512 512;" xml:space="preserve">
<g>
	<rect x="362.04" y="95.67" style="fill:#F1F2F2;" width="116.04" height="75.33"/>
	<path style="fill:#F1F2F2;" d="M338.435,389.292V502H38v-75.738c0-24.58-2.549-49.094-7.607-73.148L10,256.127l0,0h116.008
		L338.435,389.292z"/>
</g>
<path style="fill:#2DC1CF;" d="M86.293,10H20c-5.523,0-10,4.477-10,10v236.127h86.293V20C96.293,14.477,91.816,10,86.293,10z"/>
<path style="fill:#ADF0F2;" d="M390.008,224.017h-232c-17.673,0-32,14.327-32,32l0,0h296l0,0
	C422.008,238.344,407.682,224.017,390.008,224.017z"/>
<g>
	<path style="fill:#FFFFFF;" d="M126.008,256.017c0,81.738,66.262,148,148,148s148-66.262,148-148H126.008z"/>
	<path style="fill:#FFFFFF;" d="M458.083,133.063h-76.042c-11.046,0-20-8.954-20-20v-52.73c0-11.046,8.954-20,20-20h76.042
		c11.046,0,20,8.954,20,20v52.73C478.083,124.109,469.129,133.063,458.083,133.063z"/>
</g>
<path d="M390.008,214.017h-232c-19.752,0-36.353,13.709-40.813,32.11h-10.902V20c0-11.028-8.972-20-20-20H20C8.972,0,0,8.972,0,20
	v236.127c0,0.227,0.019,0.449,0.034,0.673c0.007,0.102,0.005,0.203,0.015,0.305c0.036,0.365,0.09,0.725,0.164,1.078
	c0,0,0,0.001,0,0.002l20.393,96.986C25.513,378.502,28,402.42,28,426.262V502c0,5.522,4.477,10,10,10h300.435
	c5.523,0,10-4.478,10-10V395.354c49.696-26.652,83.573-79.11,83.573-139.337C432.008,232.857,413.167,214.017,390.008,214.017z
	 M158.008,234.017h232c8.532,0,15.946,4.882,19.593,12H138.415C142.062,238.898,149.476,234.017,158.008,234.017z M20,20h66.293
	v226.127H20V20z M274.008,394.017c-5.523,0-10,4.478-10,10s4.477,10,10,10c19.117,0,37.451-3.415,54.427-9.663V492H48v-65.738
	c0-25.222-2.631-50.524-7.821-75.206L29.444,300h219.732c5.523,0,10-4.478,10-10s-4.477-10-10-10H28.193
	c-0.997,0-1.958,0.15-2.866,0.422l-3.006-14.295l389.329-0.11C406.509,337.46,346.739,394.017,274.008,394.017z"/>
<path d="M281.704,300h0.13c5.523,0,10-4.478,10-10s-4.477-10-10-10h-0.13c-5.523,0-10,4.478-10,10S276.181,300,281.704,300z"/>
<path d="M502,0c-5.523,0-10,4.478-10,10v62h-3c-0.309,0-0.614,0.019-0.917,0.046V60.333c0-16.542-13.458-30-30-30h-76.042
	c-16.542,0-30,13.458-30,30V72H348V54.417c0-5.522-4.477-10-10-10s-10,4.478-10,10V82c0,5.522,4.477,10,10,10h14.042v79
	c0,5.522,4.477,10,10,10h116.042c5.523,0,10-4.478,10-10V91.954C488.386,91.981,488.691,92,489,92h13c5.523,0,10-4.478,10-10V10
	C512,4.478,507.523,0,502,0z M372.042,60.333c0-5.514,4.486-10,10-10h76.042c5.514,0,10,4.486,10,10v35.334v17.396
	c0,5.514-4.486,10-10,10h-76.042c-5.514,0-10-4.486-10-10V95.667V60.333z M372.042,161v-19.657c3.13,1.11,6.494,1.72,10,1.72h76.042
	c3.506,0,6.87-0.61,10-1.72V161H372.042z"/>
<g>
</g>
<g>
</g>
<g>
</g>
<g>
</g>
<g>
</g>
<g>
</g>
<g>
</g>
<g>
</g>
<g>
</g>
<g>
</g>
<g>
</g>
<g>
</g>
<g>
</g>
<g>
</g>
<g>
</g>
</svg>
