<svg id="Capa_1" enable-background="new 0 0 512 512" height="512" viewBox="0 0 512 512" width="512" xmlns="http://www.w3.org/2000/svg"><g><g><path d="m504.488 256.063c0 38.41-8.71 74.78-24.28 107.24-9.63 20.11-21.89 38.73-36.33 55.4h-.01c-37.29 43.05-89.14 73.15-147.88 82.65-13.02 2.11-26.38 3.2-39.99 3.2-21.42 0-42.21-2.71-62.04-7.8-93.43-24.02-165.61-101-182.63-197.03-2.51-14.18-3.82-28.76-3.82-43.66 0-107.32 68.03-198.74 163.31-233.5 26.57-9.7 55.26-14.99 85.18-14.99 13.62 0 26.98 1.09 40 3.2 15.6 2.53 30.73 6.51 45.22 11.8 95.26 34.78 163.27 126.19 163.27 233.49z" fill="#cdf0fc"/><path d="m295.988 501.353c-13.02 2.11-26.38 3.2-39.99 3.2-21.42 0-42.21-2.71-62.04-7.8-93.43-24.02-165.61-101-182.63-197.03-2.51-14.18-3.82-28.76-3.82-43.66 0-107.32 68.03-198.74 163.31-233.5 26.57-9.7 55.26-14.99 85.18-14.99 13.62 0 26.98 1.09 40 3.2-118.22 19.13-208.49 121.67-208.49 245.29s90.26 226.15 208.48 245.29z" fill="#a8e1f6"/><g fill="#b1ecd0"><path d="m155.168 110.773c-20.39-7.28-20.24 28.94-47.67 47.5-5.63 3.81-12.42 6.88-20.79 8.67-49.15 10.53-5.1 109.98-75.31 132.8l-.07-.02c-2.51-14.18-3.82-28.76-3.82-43.66 0-107.32 68.03-198.74 163.31-233.5l.01.11c-.71 24.34-2.08 32.63 5.64 42.87 3.3 4.37 8.25 9.1 15.62 15.59 19.46 17.14-12.35 38.42-36.92 29.64z"/><path d="m504.488 256.063c0 38.41-8.71 74.78-24.28 107.24l-.12.01s-6.93-18.05-27.48-39.04c-15.07-15.38-51.46-13.92-48.26-43.34 2.93-26.9-5.08-49.18-13.28-66.51-15.05-31.77-43.9-54.34-85.99-64.33-36.87-8.74-75.08-21.18-74.72-50.53.22-17.85 44.38-25.8 57.61-28.01 27.43-4.59 70.78-24.3 53.22-48.88l.03-.1c95.26 34.78 163.27 126.19 163.27 233.49z"/><path d="m443.868 418.703c-37.29 43.05-89.14 73.15-147.88 82.65-13.02 2.11-26.38 3.2-39.99 3.2-21.42 0-42.21-2.71-62.04-7.8l-.01-.07c-6.27-7.84-1.18-21.28 8.69-30.92 7.14-6.98 16.78-11.97 26.43-11.4 22.98 1.35 22.16 16.96 39.73 16.96 24.74 0 17.21-41.3 51.17-56.43 32.67-14.55 46.07 5.48 67.25 8.04 21.72 2.62 34.75-15.72 56.65-4.23z"/><path d="m200.604 339.886c-23.257-36.914-68.228-47.237-84.74-9.868-13.145 29.749.998 61.983 29.057 65.724s71.259-31.133 55.683-55.856z"/></g><path d="m176.468 65.543c-29.7 24.89-53.5 56.6-68.97 92.73-5.63 3.81-12.42 6.88-20.79 8.67-49.15 10.53-5.1 109.98-75.31 132.8l-.07-.02c-2.51-14.18-3.82-28.76-3.82-43.66 0-107.32 68.03-198.74 163.31-233.5l.01.11c-.71 24.34-2.08 32.63 5.64 42.87z" fill="#80e0b7"/><path d="m295.988 501.353c-13.02 2.11-26.38 3.2-39.99 3.2-21.42 0-42.21-2.71-62.04-7.8l-.01-.07c-6.27-7.84-1.18-21.28 8.69-30.92 27.84 17.75 59.44 30.1 93.35 35.59z" fill="#80e0b7"/><g fill="#ffc4bf"><ellipse cx="176.429" cy="242.639" rx="29.355" ry="23.386"/><ellipse cx="335.542" cy="242.639" rx="29.355" ry="23.386"/></g></g><g><path d="m201.023 220.071v-11.996c0-4.141-3.358-7.498-7.501-7.498s-7.501 3.357-7.501 7.498v11.996c0 4.141 3.358 7.498 7.501 7.498s7.501-3.358 7.501-7.498z"/><path d="m325.931 220.071v-11.996c0-4.141-3.358-7.498-7.501-7.498s-7.501 3.357-7.501 7.498v11.996c0 4.141 3.358 7.498 7.501 7.498 4.143-.001 7.501-3.358 7.501-7.498z"/><path d="m255.977 234.71c8.478 0 16.54-3.67 22.12-10.07 2.722-3.122 2.396-7.858-.727-10.579-3.125-2.72-7.862-2.395-10.583.726-2.73 3.131-6.669 4.927-10.81 4.927s-8.082-1.796-10.811-4.927c-2.723-3.121-7.46-3.446-10.583-.726-3.122 2.721-3.448 7.457-.727 10.579 5.58 6.4 13.642 10.07 22.121 10.07z"/><path d="m504.953 196.618c-13.266-55.416-44.989-105.373-89.327-140.67-3.238-2.579-7.958-2.045-10.54 1.194-2.58 3.239-2.045 7.956 1.195 10.536 84.101 66.954 113.134 179.708 73.192 278.373-4.597-7.377-11.534-16.926-21.507-27.105-6.364-6.496-15.144-10.173-23.634-13.729-17.049-7.14-23.861-11.27-22.526-23.549 3.253-29.917-6.413-54.566-13.965-70.504-16.349-34.499-47.829-58.15-91.039-68.393-34.263-8.123-69.25-19.6-68.96-43.134.052-4.198 10.852-13.928 51.355-20.701 20.28-3.391 53.429-15.63 61.635-35.451.932-2.252 1.705-4.99 1.883-8.091 2.035.893 4.064 1.815 6.086 2.769 6.502 3.067 13.052 6.532 19.465 10.298 3.571 2.097 8.169.903 10.266-2.667 2.098-3.57.903-8.165-2.668-10.263-6.801-3.994-13.754-7.672-20.663-10.93-61.828-29.164-131.322-32.514-195.673-9.431-64.353 23.082-115.861 69.834-145.038 131.643-26.477 56.093-31.682 119.791-14.655 179.36 16.864 59.003 54.264 109.964 105.308 143.495 1.27.834 2.699 1.233 4.113 1.233 2.441 0 4.834-1.19 6.275-3.381 2.276-3.46 1.313-8.109-2.149-10.384-54.846-36.028-90.61-91.861-103.159-152.777 36.62-15.589 41.302-52.298 45.104-82.109 3.503-27.471 6.486-44.487 22.933-48.01 30.241-6.478 42.014-27.51 50.61-42.867 7.82-13.971 9.585-15.045 13.758-13.556 18.16 6.485 41.514-.427 49.978-14.787 5.497-9.327 3.411-19.619-5.579-27.532-19.93-17.541-19.913-18.048-18.984-44.59.031-.889.063-1.803.096-2.743 49.993-17.075 105.597-17.877 158.111.712 2.205 3.979 1.582 6.802.724 8.875-4.788 11.563-29.848 22.984-50.25 26.394-42.78 7.155-63.675 18.703-63.879 35.307-.199 16.104 8.968 29.436 27.248 39.625 15.567 8.678 35.654 14.112 53.25 18.284 38.623 9.156 66.612 29.981 80.942 60.223 7.347 15.503 15.42 36.614 12.609 62.464-2.677 24.626 17.158 32.934 31.642 39 7.443 3.117 14.474 6.062 18.714 10.39 14.47 14.77 21.833 28.047 24.565 33.648-8.386 16.902-18.521 32.401-30.081 46.379-12.911-4.638-23.413-1.026-32.815 2.209-6.871 2.364-13.359 4.594-20.801 3.698-5.804-.7-11.276-3.126-17.07-5.693-12.963-5.746-29.096-12.898-54.14-1.741-20.01 8.911-27.337 25.337-33.225 38.536-5.575 12.498-8.302 17.22-14.892 17.22-5.622 0-8.137-2.114-12.303-5.616-5.257-4.419-12.457-10.471-26.991-11.325-17.913-1.064-34.59 12.499-41.8 26.43-2.248 4.343-3.554 8.616-3.923 12.642-10.322-3.249-20.543-7.233-30.597-11.975-.036-.018-.148-.072-.185-.089-3.744-1.773-8.233-.183-10.007 3.558-1.773 3.743-.192 8.206 3.551 9.978l.211.102c34.698 16.364 71.8 24.6 109.06 24.6 29.139 0 58.378-5.04 86.618-15.17 64.352-23.083 115.861-69.835 145.037-131.643 12.634-26.765 20.484-55.138 23.332-84.33 2.753-28.21.788-56.553-5.841-84.239zm-317.839-109.867c5.053 4.448 3.374 7.296 2.568 8.665-4.346 7.374-19.591 12.711-32.008 8.278-7.718-2.755-14.876-1.348-20.702 4.074-4.34 4.039-7.516 9.712-11.193 16.282-7.994 14.282-17.055 30.47-40.661 35.526-27.676 5.928-31.233 33.811-34.671 60.776-3.489 27.359-7.087 55.563-32.873 68.684-6.333-45.133-.046-92.332 20.485-135.825 26.427-55.986 71.796-97.088 124.875-119.28-.821 26.217.647 32.108 24.18 52.82zm11.798 403.298c-.744-2.846.474-6.815 2.11-9.976 4.931-9.528 16.622-18.988 27.595-18.35 9.568.563 13.576 3.932 18.217 7.833 4.841 4.07 10.867 9.134 21.958 9.134 16.946 0 23.133-13.87 28.593-26.108 5.345-11.983 10.873-24.374 25.629-30.946 18.954-8.442 29.613-3.718 41.956 1.752 6.547 2.902 13.317 5.903 21.352 6.872 10.854 1.313 19.69-1.726 27.479-4.405 6.124-2.107 11.18-3.846 16.529-3.566-58.867 61.579-147.414 88.255-231.418 67.76z"/><path d="m145.921 299.132c-16.436 1.203-29.553 11.065-36.937 27.77-7.863 17.787-7.391 37.613 1.26 53.035 7.29 12.994 19.246 21.209 33.668 23.131 1.644.219 3.337.326 5.068.326 19.627 0 44.11-13.675 55.793-31.872 8.031-12.507 8.799-25.194 2.164-35.721-15.054-23.887-39.01-38.289-61.016-36.669zm48.324 44.662c3.452 5.479 2.747 12.083-2.096 19.628-9.58 14.919-31.622 26.73-46.254 24.782-9.628-1.283-17.642-6.824-22.566-15.602-6.355-11.328-6.588-26.146-.623-39.64 5.109-11.558 13.516-18.085 24.31-18.875.749-.055 1.501-.082 2.261-.082 15.765.001 33.567 11.7 44.968 29.789z"/></g></g></svg>