<svg width="70" height="62" viewBox="0 0 70 62" fill="none" xmlns="http://www.w3.org/2000/svg">
<path d="M52.8906 9.49219C52.8906 9.49219 58.028 7.96875 58.7891 4.02344C58.7891 4.02344 60.5078 9.44238 65.2344 9.41406C65.2344 9.41406 59.1406 10.3516 58.7891 16.5234C58.7891 16.5234 59.1016 10.1953 52.8906 9.49219Z" fill="#75CFB8"/>
<path d="M63.0859 15.2957C63.0859 15.2957 65.6384 14.5388 66.0165 12.5786C66.0165 12.5786 66.8704 15.2709 69.2188 15.2569C69.2188 15.2569 66.1912 15.7226 66.0165 18.789C66.0165 18.789 66.1718 15.645 63.0859 15.2957Z" fill="#75CFB8"/>
<path d="M62.5781 15.6641C64.3012 15.6641 65.7031 17.0659 65.7031 18.7891C65.7031 19.0048 65.878 19.1797 66.0938 19.1797C66.3095 19.1797 66.4844 19.0048 66.4844 18.7891C66.4844 17.0659 67.8863 15.6641 69.6094 15.6641C69.8251 15.6641 70 15.4891 70 15.2734C70 15.0577 69.8251 14.8828 69.6094 14.8828C67.8863 14.8828 66.4844 13.4809 66.4844 11.7578C66.4844 11.5421 66.3095 11.3672 66.0938 11.3672C65.878 11.3672 65.7031 11.5421 65.7031 11.7578C65.7031 13.4809 64.3012 14.8828 62.5781 14.8828C62.3624 14.8828 62.1875 15.0577 62.1875 15.2734C62.1875 15.4891 62.3624 15.6641 62.5781 15.6641ZM66.0938 13.4598C66.4772 14.2486 67.1185 14.89 67.9074 15.2734C67.1186 15.6569 66.4772 16.2982 66.0938 17.0871C65.7103 16.2982 65.069 15.6569 64.2801 15.2734C65.069 14.89 65.7103 14.2487 66.0938 13.4598Z" fill="black"/>
<path d="M60.8984 11.875C61.1142 11.875 61.2891 11.7001 61.2891 11.4844C61.2891 11.2686 61.1142 11.0938 60.8984 11.0938C60.6827 11.0938 60.5078 11.2686 60.5078 11.4844C60.5078 11.7001 60.6827 11.875 60.8984 11.875Z" fill="black"/>
<path d="M61.9405 10.5935C62.0506 10.779 62.2903 10.8402 62.4758 10.7301C63.4961 10.1247 64.6661 9.80469 65.8594 9.80469C66.0751 9.80469 66.25 9.62977 66.25 9.41406C66.25 9.19836 66.0751 9.02344 65.8594 9.02344C62.1977 9.02344 59.2188 6.04445 59.2188 2.38281C59.2188 2.16711 59.0439 1.99219 58.8281 1.99219C58.6124 1.99219 58.4375 2.16711 58.4375 2.38281C58.4375 6.04445 55.4585 9.02344 51.7969 9.02344C51.5811 9.02344 51.4062 9.19836 51.4062 9.41406C51.4062 9.62977 51.5811 9.80469 51.7969 9.80469C55.4585 9.80469 58.4375 12.7837 58.4375 16.4453C58.4375 16.661 58.6124 16.8359 58.8281 16.8359C59.0439 16.8359 59.2188 16.661 59.2188 16.4453C59.2188 15.252 59.5387 14.082 60.1441 13.0618C60.2542 12.8762 60.1931 12.6366 60.0076 12.5265C59.8219 12.4163 59.5823 12.4775 59.4723 12.663C59.2081 13.1083 58.9925 13.5789 58.8279 14.0666C58.0875 11.8839 56.3575 10.1542 54.1748 9.41406C56.3578 8.67383 58.0879 6.94371 58.8281 4.76074C59.5683 6.94348 61.298 8.67344 63.4806 9.41379C62.9929 9.57848 62.5223 9.79402 62.0771 10.0582C61.8916 10.1684 61.8304 10.408 61.9405 10.5935Z" fill="black"/>
<path d="M0.761719 30.515C0.761719 30.515 3.12884 29.8131 3.47948 27.9952C3.47948 27.9952 4.27141 30.4921 6.44922 30.479C6.44922 30.479 3.64147 30.9109 3.47948 33.7547C3.47948 33.7547 3.62345 30.839 0.761719 30.515Z" fill="#75CFB8"/>
<path d="M0.507812 31.1289C1.90785 31.1289 3.04688 32.2679 3.04688 33.668C3.04688 33.9484 3.27422 34.1758 3.55469 34.1758C3.83515 34.1758 4.0625 33.9484 4.0625 33.668C4.0625 32.2679 5.20152 31.1289 6.60156 31.1289C6.88203 31.1289 7.10938 30.9015 7.10938 30.6211C7.10938 30.3407 6.88203 30.1133 6.60156 30.1133C5.20152 30.1133 4.0625 28.9743 4.0625 27.5742C4.0625 27.2938 3.83515 27.0664 3.55469 27.0664C3.27422 27.0664 3.04688 27.2938 3.04688 27.5742C3.04688 28.9743 1.90785 30.1133 0.507812 30.1133C0.227348 30.1133 0 30.3407 0 30.6211C0 30.9015 0.227348 31.1289 0.507812 31.1289ZM3.55469 29.4036C3.85496 29.9017 4.27405 30.3209 4.77217 30.6211C4.274 30.9213 3.85491 31.3405 3.55469 31.8386C3.25442 31.3405 2.83532 30.9213 2.33721 30.6211C2.83532 30.3209 3.25442 29.9017 3.55469 29.4036Z" fill="black"/>
<path d="M26.311 8.07094C28.34 4.55652 32.8339 3.3524 36.3483 5.38145L43.8005 9.68397L51.2527 13.9865C54.7671 16.0155 55.9712 20.5094 53.9422 24.0238L33.3374 59.7123L5.70619 43.7594L26.311 8.07094Z" stroke="#2D2D2D" stroke-width="2.5"/>
<line x1="21.0311" y1="15.2721" x2="49.951" y2="31.6862" stroke="#2D2D2D" stroke-width="2.5"/>
<line x1="17.1248" y1="22.3068" x2="46.0448" y2="38.7208" stroke="#2D2D2D" stroke-width="2.5"/>
<line x1="13.2147" y1="28.5597" x2="42.1346" y2="44.9737" stroke="#2D2D2D" stroke-width="2.5"/>
<line x1="9.30841" y1="35.5943" x2="38.2284" y2="52.0083" stroke="#2D2D2D" stroke-width="2.5"/>
</svg>
