<svg width="122" height="122" viewBox="0 0 122 122" fill="none" xmlns="http://www.w3.org/2000/svg">
<g clip-path="url(#clip0)">
<path d="M111.24 19.6101C111.24 12.3177 107.444 5.80052 101.72 2.14957C100.185 1.17047 98.1735 2.2923 98.1735 4.11253V18.1928C98.1735 22.3332 94.8171 25.6896 90.6767 25.6896C86.5363 25.6896 83.1799 22.3332 83.1799 18.1928V4.11253C83.1799 2.29206 81.1681 1.17047 79.6333 2.14957C73.9096 5.80052 70.1133 12.3177 70.1133 19.6101C70.1133 24.8718 72.0896 29.6715 75.3405 33.3082C75.4455 33.4259 75.5735 33.5793 75.72 33.7623C78.8987 37.7321 80.6046 42.6807 80.6046 47.7664V110.141C80.6046 115.703 85.114 120.213 90.6767 120.213C96.2394 120.213 100.749 115.703 100.749 110.141V47.7664C100.749 42.6807 102.455 37.7321 105.633 33.7623C105.78 33.5793 105.908 33.4259 106.013 33.3082C109.264 29.6715 111.24 24.8718 111.24 19.6101Z" fill="#C9E0FD"/>
<path d="M90.675 112.984C88.8157 112.984 87.3086 111.477 87.3086 109.617V41.1482C87.3086 39.2889 88.8157 37.7817 90.675 37.7817C92.5343 37.7817 94.0415 39.2889 94.0415 41.1482V109.617C94.0415 111.476 92.5343 112.984 90.675 112.984Z" fill="#EAF2FF"/>
<path d="M103.592 67.5356C106.705 67.5356 109.24 65.0119 109.24 61.8988C109.24 58.7856 106.704 56.262 103.592 56.262L84.216 56.2463C82.1265 56.2463 80.6062 54.5959 80.6069 52.5065V47.6064C75.7677 47.6064 71.0238 49.4615 68.03 53.2632L64.98 57.1363C63.124 59.4931 60.2897 60.8689 57.2897 60.8689H36.0391V95.1628H61.3024C62.5429 95.1628 63.7724 95.3987 64.9247 95.8579L73.0036 99.0764C77.2758 100.533 81.7583 101.276 86.2718 101.276L96.3392 101.356C99.5427 101.356 102.122 98.6834 101.969 95.4466C101.864 93.2163 100.423 91.3651 98.4602 90.5419C98.3708 90.5044 98.3117 90.4187 98.3117 90.3219C98.3117 90.1894 98.419 90.0822 98.5514 90.0822H99.7536C102.733 90.0822 105.235 87.7058 105.239 84.7266C105.243 81.4667 102.932 78.9352 99.8408 78.8153V78.8091L100.606 78.8086C103.67 78.8086 106.285 76.4268 106.387 73.3649C106.487 70.3811 104.266 67.8961 101.392 67.5723V67.5356H103.592Z" fill="#FFDDCE"/>
<path d="M14.716 97.2452H50.2688V59.2617H14.716C12.5277 59.2617 10.7539 61.0357 10.7539 63.2239V93.2828C10.7539 95.4711 12.5279 97.2452 14.716 97.2452Z" fill="#DBDBDB"/>
<path d="M50.269 59.2617H26.8438V82.6757C26.8438 86.8411 23.4672 90.218 19.3015 90.218H10.7539V93.283C10.7539 95.4714 12.5279 97.2452 14.716 97.2452H50.2688L50.269 59.2617Z" fill="#FDFDFD"/>
<path d="M47.6046 54.0864C44.74 54.0864 42.418 56.4085 42.418 59.2731V95.7699C42.418 98.6345 44.74 100.957 47.6046 100.957C50.4693 100.957 52.7913 98.6345 52.7913 95.7699V59.2731C52.7913 56.4087 50.469 54.0864 47.6046 54.0864Z" fill="#DBDBDB"/>
<path d="M103.589 67.5356C106.703 67.5356 109.238 65.012 109.238 61.8988C109.238 58.7857 106.702 56.262 103.589 56.262L84.2138 56.2463C82.1243 56.2463 80.604 54.596 80.6047 52.5065V47.6064C75.7655 47.6064 71.0216 49.4615 68.0278 53.2632L66.3281 55.4218C66.9412 55.9382 67.7352 56.2463 68.6359 56.2463L88.0115 56.262C91.0877 56.262 93.5997 58.7261 93.6587 61.7885C93.7197 64.9488 91.0558 67.5356 87.8947 67.5356C87.824 67.5356 87.7637 67.5873 87.7529 67.6574L87.7148 67.9095C87.6953 68.0388 87.7611 68.1639 87.8759 68.2268C89.6766 69.2124 90.8811 71.1508 90.8072 73.3651C90.7195 75.996 88.7759 78.1236 86.2873 78.671C86.1615 78.6986 86.0642 78.7977 86.0449 78.925C86.0235 79.0658 86.1031 79.1995 86.2341 79.2552C88.2846 80.129 89.6621 82.2104 89.659 84.7269C89.6556 87.4271 87.599 89.6307 84.9958 90.0198C84.6067 90.078 84.3067 90.3935 84.2476 90.7823C84.2014 91.0878 84.315 91.393 84.5443 91.5999C85.6134 92.5635 86.3171 93.9153 86.389 95.4469C86.5134 98.0876 84.8195 100.352 82.4521 101.096C83.7196 101.215 84.9932 101.276 86.2696 101.276L96.337 101.356C99.5405 101.356 102.12 98.6837 101.967 95.4469C101.862 93.2166 100.421 91.3654 98.458 90.5421C98.3686 90.5047 98.3095 90.4189 98.3095 90.3222C98.3095 90.1897 98.4168 90.0825 98.5492 90.0825H99.7514C102.731 90.0825 105.233 87.7061 105.237 84.7269C105.241 81.467 102.93 78.9355 99.8386 78.8156V78.8094L100.604 78.8089C103.668 78.8089 106.283 76.4271 106.385 73.3651C106.485 70.3814 104.264 67.8964 101.39 67.5725V67.5358H103.589V67.5356Z" fill="#FFCBBE"/>
<path d="M103.59 54.4755L102.537 54.4745V47.7671C102.537 42.5552 104.602 37.5727 107.346 34.5001C111.01 30.4014 113.028 25.1137 113.028 19.6113C113.028 11.9825 109.064 4.71472 102.682 0.644157C99.9605 -1.09172 96.3875 0.887442 96.3875 4.11377V18.194C96.3875 21.3425 93.8262 23.9037 90.6778 23.9037C87.5294 23.9037 84.9678 21.3425 84.9678 18.194V4.11401C84.9678 0.880055 81.3877 -1.08767 78.6732 0.644395C72.2915 4.71472 68.3272 11.9825 68.3272 19.6116C68.3272 25.114 70.345 30.4017 74.0081 34.4992C76.3618 37.1386 78.3236 41.3762 78.7315 45.9062C73.7867 46.3546 69.4438 48.5766 66.6228 52.1587L63.5728 56.0319C62.0461 57.9708 59.7548 59.0829 57.2867 59.0829H54.5784C54.4767 55.3256 51.3907 52.3 47.6096 52.3C44.3862 52.3 41.6676 54.4991 40.8722 57.4754H14.718C11.5477 57.4754 8.96875 60.0546 8.96875 63.2247V93.2834C8.96875 96.4537 11.5479 99.0326 14.718 99.0326H41.4491C42.6217 101.238 44.9428 102.744 47.6101 102.744C51.0528 102.744 53.9191 100.235 54.4817 96.9505H61.2996C62.318 96.9505 63.3143 97.1416 64.2605 97.5186C69.6194 99.4687 72.2708 101.256 78.8187 102.411V110.142C78.8187 116.681 84.1389 122.001 90.678 122.001C97.2172 122.001 102.537 116.681 102.537 110.142V99.8013C103.399 98.4991 103.826 96.9639 103.751 95.3633C103.683 93.9196 103.174 92.548 102.334 91.4036C105.069 90.3778 107.019 87.7731 107.023 84.7298C107.025 82.5664 106.227 80.6437 104.903 79.2603C106.805 77.9583 108.09 75.8278 108.17 73.4255C108.229 71.6574 107.65 69.994 106.637 68.6708C109.221 67.5066 111.024 64.9096 111.024 61.8998C111.024 57.8057 107.688 54.4755 103.59 54.4755ZM51.0094 95.7696C51.0094 97.6442 49.4844 99.1692 47.6099 99.1692C45.7353 99.1692 44.2105 97.6442 44.2105 95.7696V91.4131C44.2105 90.4261 43.4104 89.626 42.4234 89.626C41.4365 89.626 40.6363 90.4261 40.6363 91.4131V95.4582H14.718C13.5187 95.4582 12.543 94.4824 12.543 93.2831V63.2244C12.543 62.0252 13.5187 61.0494 14.718 61.0494H40.6363V83.053C40.6363 84.04 41.4365 84.8401 42.4234 84.8401C43.4104 84.8401 44.2105 84.04 44.2105 83.053V59.2797C44.2105 59.2768 44.2105 59.274 44.2105 59.2711C44.2117 57.3977 45.7363 55.8739 47.6099 55.8739C49.4844 55.8739 51.0092 57.3989 51.0092 59.2735V95.7696H51.0094ZM76.674 32.118C73.5966 28.6753 71.9017 24.2338 71.9017 19.6113C71.9017 13.1911 75.2329 7.07799 80.5954 3.6577C80.9409 3.43705 81.3939 3.70059 81.3939 4.11401V18.1943C81.3939 23.3135 85.5585 27.4782 90.6778 27.4782C95.797 27.4782 99.9617 23.3135 99.9617 18.1943V4.11401C99.9617 3.7013 100.414 3.43657 100.76 3.6577C106.123 7.07823 109.454 13.1913 109.454 19.6113C109.454 24.2338 107.759 28.6753 104.681 32.1185C101.374 35.8226 98.9626 41.6443 98.9626 47.7671V54.4717L95.8311 54.4693V50.7816C95.8311 49.7947 95.0309 48.9945 94.044 48.9945C93.057 48.9945 92.2569 49.7947 92.2569 50.7816V54.4664L89.0982 54.4638V41.1489C89.0982 40.278 89.8068 39.5695 90.6775 39.5695C91.5484 39.5695 92.2569 40.278 92.2569 41.1489V42.4213C92.2569 43.4083 93.057 44.2084 94.044 44.2084C95.0309 44.2084 95.8311 43.4083 95.8311 42.4213V41.1489C95.8311 38.3071 93.5193 35.9953 90.6775 35.9953C87.8358 35.9953 85.524 38.3071 85.524 41.1489V54.4609L84.2127 54.46C83.094 54.46 82.3906 53.5879 82.3908 52.5073C82.3927 48.2694 83.1917 39.4211 76.674 32.118ZM98.9628 110.141C98.9628 114.709 95.2461 118.426 90.6778 118.426C86.1094 118.426 82.3927 114.709 82.3927 110.141V102.887C83.4328 102.981 84.477 103.038 85.5242 103.055V109.617C85.5242 112.459 87.8363 114.771 90.6778 114.771C93.5195 114.771 95.8313 112.459 95.8313 109.617V103.139C96.0384 103.124 97.3923 103.259 98.9628 102.667V110.141ZM89.0984 109.617V103.085L92.2571 103.11V109.617C92.2571 110.488 91.5487 111.196 90.6778 111.196C89.8071 111.196 89.0984 110.488 89.0984 109.617ZM103.588 65.7488H101.388C100.401 65.7488 99.6012 66.5489 99.6012 67.5359V67.5726C99.6012 68.4821 100.284 69.2465 101.188 69.3485C103.167 69.5715 104.664 71.3096 104.598 73.3059C104.529 75.3549 102.737 77.0221 100.602 77.0221L99.8363 77.0226C98.8496 77.0231 98.0502 77.8294 98.0502 78.8159C98.0502 79.7759 98.8086 80.5644 99.768 80.6016C101.903 80.6845 103.451 82.4185 103.448 84.7248C103.446 86.6937 101.787 88.2954 99.7501 88.2954H98.548C97.4304 88.2954 96.5211 89.2045 96.5211 90.322C96.5211 91.1398 97.0096 91.8732 97.7657 92.1901C99.1866 92.7858 100.112 94.0661 100.181 95.5308C100.285 97.7387 98.5256 99.5688 96.3501 99.5688C86.7001 99.4229 84.8163 99.6681 80.8205 99.1096C80.8074 99.1079 80.7946 99.1055 80.7812 99.1043C73.8101 98.1229 70.5027 95.9566 65.5832 94.1979C64.2143 93.6527 62.7731 93.3761 61.2996 93.3761H54.5836V62.6568H57.2872C60.8578 62.6568 64.1726 61.048 66.3814 58.2429L69.4312 54.3699C71.5941 51.6235 74.951 49.8943 78.8171 49.4875V52.5073C78.8161 55.5668 81.1196 58.0347 84.2118 58.0347C86.536 58.0366 98.4429 58.0461 100.749 58.048H100.75H100.752L103.589 58.0504C105.718 58.0504 107.45 59.7772 107.45 61.9001C107.449 64.022 105.717 65.7488 103.588 65.7488Z" fill="#2D2D2D"/>
</g>
<defs>
<clipPath id="clip0">
<rect width="122" height="122" fill="white"/>
</clipPath>
</defs>
</svg>
