<svg width="122" height="122" viewBox="0 0 122 122" fill="none" xmlns="http://www.w3.org/2000/svg">
<path d="M85.453 24.3237H12.1C10.9749 24.3237 10.0625 25.2361 10.0625 26.3613V69.1504H16.1751C18.4257 69.1504 20.2502 70.9747 20.2502 73.2255C20.2502 75.476 18.4255 77.3006 16.1751 77.3006H10.0625V83.4132C10.0625 84.5384 10.9749 85.4507 12.1 85.4507H87.4906V26.3613C87.4906 25.2361 86.5782 24.3237 85.453 24.3237Z" fill="#FDFDFD"/>
<path d="M111.939 56.9253H87.4883V85.4514H120.089V65.0755C120.089 60.5743 116.44 56.9253 111.939 56.9253Z" fill="white"/>
<path d="M87.4883 63.0381H109.562C111.813 63.0381 113.637 64.8624 113.637 67.1132V85.4513H87.4883V63.0381Z" fill="#E1E1E1"/>
<path d="M103.789 32.4731H87.4883V40.6236H109.902V38.586C109.902 35.2098 107.165 32.4731 103.789 32.4731Z" fill="white"/>
<path d="M111.939 56.9251L107.864 40.6245H87.4883V56.9251H111.939Z" fill="#B4E6FF"/>
<path d="M111.938 65.0747H120.088V73.2251H116.013C113.762 73.2251 111.938 71.4008 111.938 69.15V65.0747H111.938Z" fill="#F1F4FB"/>
<path d="M101.751 71.188C95.6103 71.188 90.2676 74.5871 87.4883 79.6034V85.451H117.911C116.906 77.4121 110.062 71.188 101.751 71.188Z" fill="#D2D2D2"/>
<path d="M113.641 76.3477V85.4505H117.915C117.477 81.9504 115.931 78.7958 113.641 76.3477Z" fill="#DCDCDC"/>
<path d="M101.754 97.6757C107.381 97.6757 111.942 93.1144 111.942 87.4878C111.942 81.8611 107.381 77.2998 101.754 77.2998C96.1277 77.2998 91.5664 81.8611 91.5664 87.4878C91.5664 93.1144 96.1277 97.6757 101.754 97.6757Z" fill="#5B5D6E"/>
<path d="M95.6385 46.7371H109.392L107.864 40.6245H87.4883V56.9251H93.6009V48.7747C93.6007 47.6495 94.5131 46.7371 95.6385 46.7371Z" fill="#9BD6FF"/>
<path d="M34.5135 71.188C29.3683 71.188 24.7871 73.5775 21.8 77.3006H16.1754H10.0625V83.4132C10.0625 84.5384 10.9749 85.4508 12.1 85.4508H87.4906V77.3004H47.227C44.2399 73.5775 39.6587 71.188 34.5135 71.188Z" fill="#D2D2D2"/>
<path d="M34.5122 97.6757C40.1388 97.6757 44.7001 93.1144 44.7001 87.4878C44.7001 81.8611 40.1388 77.2998 34.5122 77.2998C28.8855 77.2998 24.3242 81.8611 24.3242 87.4878C24.3242 93.1144 28.8855 97.6757 34.5122 97.6757Z" fill="#5B5D6E"/>
<path d="M113.46 55.1293L110.3 42.4921C111.164 42.3086 111.812 41.5423 111.812 40.6242V38.5867C111.812 34.1627 108.213 30.5637 103.789 30.5637H89.3988V26.3609C89.3988 24.184 87.6279 22.4131 85.451 22.4131H12.098C9.92108 22.4131 8.15017 24.184 8.15017 26.3609V60.9999C8.15017 62.0547 9.00536 62.9102 10.0605 62.9102C11.1156 62.9102 11.9708 62.055 11.9708 60.9999V26.3609C11.9708 26.2906 12.0277 26.2337 12.098 26.2337H85.4508C85.521 26.2337 85.578 26.2906 85.578 26.3609V61.0004C85.578 62.0552 86.4332 62.9107 87.4883 62.9107C88.5432 62.9107 89.3986 62.0555 89.3986 61.0004V58.8348H111.933C111.934 58.8348 111.936 58.8353 111.938 58.8353C111.939 58.8353 111.941 58.8351 111.943 58.8351C114.716 58.8368 117.07 60.657 117.879 63.1649H111.939C110.884 63.1649 110.029 64.0201 110.029 65.0752V69.1503C110.029 72.4507 112.714 75.1357 116.014 75.1357H118.179V83.5406H113.184C111.544 78.803 107.04 75.3901 101.751 75.3901C96.4624 75.3901 91.9585 78.8028 90.3179 83.5406H89.3981V69.1503C89.3981 68.0954 88.5429 67.24 87.4878 67.24C86.4329 67.24 85.5775 68.0952 85.5775 69.1503V83.5403H45.9447C44.3039 78.8026 39.8001 75.3899 34.5115 75.3899C29.2228 75.3899 24.7188 78.8026 23.0783 83.5403H12.098C12.0277 83.5403 11.9708 83.4834 11.9708 83.4131V79.2105H20.2484C21.3033 79.2105 22.1587 78.3553 22.1587 77.3002C22.1587 76.2453 21.3035 75.3899 20.2484 75.3899H1.9103C0.85543 75.3899 0 76.2451 0 77.3002C0 78.3551 0.855191 79.2105 1.9103 79.2105H8.15041V83.4131C8.15041 85.59 9.92132 87.3609 12.0983 87.3609H22.4168C22.4163 87.4033 22.4135 87.4455 22.4135 87.4882C22.4135 94.1591 27.8408 99.5862 34.5115 99.5862C41.1822 99.5862 46.6095 94.1591 46.6095 87.4882C46.6095 87.4453 46.6066 87.4033 46.6061 87.3609H89.6564C89.6559 87.4033 89.6531 87.4455 89.6531 87.4882C89.6531 94.1591 95.0804 99.5862 101.751 99.5862C108.422 99.5862 113.849 94.1591 113.849 87.4882C113.849 87.4453 113.846 87.4033 113.846 87.3609H120.089C121.144 87.3609 122 86.5057 122 85.4506V65.0747C122 60.0444 118.288 55.8644 113.46 55.1293ZM89.3988 42.5343H106.373L109.493 55.0145H89.3988V42.5343ZM103.789 34.3841C106.106 34.3841 107.992 36.2694 107.992 38.5867V38.7139H89.3988V34.3841H103.789ZM34.5115 95.7661C29.9472 95.7661 26.2338 92.0529 26.2338 87.4884C26.2338 82.9239 29.9472 79.2108 34.5115 79.2108C39.0757 79.2108 42.7891 82.9239 42.7891 87.4884C42.7891 92.0529 39.0757 95.7661 34.5115 95.7661ZM101.752 95.7661C97.1873 95.7661 93.4739 92.0529 93.4739 87.4884C93.4739 82.9239 97.1873 79.2108 101.752 79.2108C106.316 79.2108 110.029 82.9239 110.029 87.4884C110.029 92.0529 106.316 95.7661 101.752 95.7661ZM116.015 71.3151C114.821 71.3151 113.85 70.3438 113.85 69.15V66.985H118.179V71.3148H116.015V71.3151Z" fill="#2D2D2D"/>
<path d="M34.5143 83.54C32.3373 83.54 30.5664 85.311 30.5664 87.4879C30.5664 89.6648 32.3373 91.4357 34.5143 91.4357C36.6912 91.4357 38.4621 89.6648 38.4621 87.4879C38.4621 85.311 36.6912 83.54 34.5143 83.54Z" fill="#2D2D2D"/>
<path d="M101.749 83.54C99.5717 83.54 97.8008 85.311 97.8008 87.4879C97.8008 89.6648 99.5717 91.4357 101.749 91.4357C103.926 91.4357 105.696 89.6648 105.696 87.4879C105.696 85.311 103.926 83.54 101.749 83.54Z" fill="#2D2D2D"/>
<path d="M48.9023 77.3004C48.9023 78.3553 49.7575 79.2107 50.8126 79.2107H79.3385C80.3933 79.2107 81.2488 78.3555 81.2488 77.3004C81.2488 76.2456 80.3936 75.3901 79.3385 75.3901H50.8124C49.7575 75.3901 48.9023 76.2456 48.9023 77.3004Z" fill="#2D2D2D"/>
<path d="M5.98842 71.0603H30.4394C31.4943 71.0603 32.3497 70.2052 32.3497 69.15C32.3497 68.0952 31.4945 67.2397 30.4394 67.2397H5.98842C4.93355 67.2397 4.07812 68.0949 4.07812 69.15C4.07812 70.2052 4.93355 71.0603 5.98842 71.0603Z" fill="#2D2D2D"/>
<path d="M63.7224 41.3113L46.7348 58.2986L37.8977 49.4615C37.1516 48.7154 35.9421 48.7154 35.1963 49.4615C34.4502 50.2075 34.4502 51.4168 35.1963 52.1629L45.3842 62.3508C45.7571 62.724 46.2461 62.9103 46.7348 62.9103C47.2235 62.9103 47.7125 62.724 48.0854 62.3508L66.4235 44.0127C67.1696 43.2667 67.1696 42.0574 66.4235 41.3113C65.6779 40.5655 64.4682 40.5655 63.7224 41.3113Z" fill="#2D2D2D"/>
</svg>
