<svg width="60" height="60" viewBox="0 0 60 60" fill="none" xmlns="http://www.w3.org/2000/svg">
<g clip-path="url(#clip0)">
<path d="M54.0482 17.0055C52.0711 12.5473 51.0214 7.77286 51.0214 2.9407V2.75943C51.0214 1.71756 50.1251 0.872986 49.0196 0.872986H11.1269C10.0214 0.872986 9.12507 1.71756 9.12507 2.75943V2.9407C9.12507 7.7724 8.07496 12.5473 6.09834 17.0055C3.19291 23.5579 0.0141997 36.6335 5.71931 57.6902C5.94636 58.5274 6.74378 59.1152 7.66068 59.1152H27.2644C27.9781 59.1152 28.5567 58.5366 28.5567 57.8224V42.377C28.5567 41.5238 29.2488 40.8316 30.1021 40.8316C30.9554 40.8316 31.647 41.5233 31.647 42.377V57.8224C31.647 58.5366 32.2257 59.1152 32.9393 59.1152H52.4858C53.4027 59.1152 54.2001 58.5274 54.4272 57.6902C60.1323 36.6335 56.9536 23.5579 54.0482 17.0055Z" fill="#FFE0D1"/>
<path d="M9.89823 57.6902C4.19267 36.6335 7.37138 23.5584 10.2773 17.0055C12.2539 12.5473 13.3035 7.77286 13.3035 2.9407V2.75943C13.3035 1.71756 14.1998 0.872986 15.3053 0.872986H11.1269C10.0214 0.872986 9.12507 1.71756 9.12507 2.75943V2.9407C9.12507 7.7724 8.07496 12.5473 6.09834 17.0055C3.19291 23.5579 0.0142 36.6335 5.71931 57.6902C5.94636 58.5274 6.74378 59.1152 7.66068 59.1152H11.8392C10.9223 59.1152 10.1253 58.5274 9.89823 57.6902Z" fill="#FFD1C2"/>
<path d="M53.5798 15.8991L41.488 15.3296C33.8813 14.9712 26.2614 14.9712 18.6543 15.3296L6.5629 15.8991C6.41275 16.2694 6.25894 16.6388 6.09644 17.0055C5.57367 18.1847 5.04175 19.5763 4.55469 21.1867C16.3064 24.6314 26.3928 33.0345 29.2579 35.5765C29.7221 35.9885 30.4202 35.9885 30.8848 35.5765C33.7499 33.0345 43.8363 24.6314 55.5876 21.1867C55.1005 19.5763 54.569 18.1847 54.0463 17.0055C53.8833 16.6388 53.7295 16.2694 53.5798 15.8991Z" fill="#75CFB8"/>
<path d="M10.8215 15.6985L6.5629 15.899C6.26855 16.6896 5.43634 18.2735 4.55469 21.1867C5.84695 21.5657 7.11862 22.0042 8.36328 22.4886C8.94327 20.3142 9.61618 18.4914 10.2754 17.0055C10.4667 16.5729 10.6471 16.1366 10.8215 15.6985Z" fill="#61B8A2"/>
<path d="M48.9898 0H11.097C9.5086 0 8.21634 1.24054 8.21634 2.76581C8.21634 7.42538 7.32095 12.0195 5.26513 16.6553C-0.238102 29.0689 1.27664 44.7684 4.8417 57.9263C5.17266 59.1472 6.31936 60 7.63086 60H27.235C28.4326 60 29.4062 59.0259 29.4062 57.8288V42.4512C29.6452 41.992 29.858 41.5192 30.0434 41.0335C30.2435 41.5576 30.476 42.0671 30.7383 42.5606V57.8288C30.7383 59.0263 31.7124 60 32.9095 60H52.456C53.7675 60 54.9146 59.1472 55.2456 57.9263C57.3769 50.0601 58.4532 42.6201 58.4445 35.8127C58.444 35.3279 58.0508 34.9352 57.5655 34.9352H57.5646C57.0789 34.9356 56.6862 35.3297 56.6866 35.8154C56.6949 42.4663 55.6393 49.7507 53.5487 57.4663C53.4251 57.9231 52.976 58.2422 52.4564 58.2422H32.9095C32.682 58.2422 32.4966 58.0568 32.4966 57.8288V45.1282C35.2226 48.2954 39.3749 50.3224 44.0189 50.3224C44.5042 50.3224 44.8979 49.9287 44.8979 49.4435C44.8979 48.9578 44.5042 48.5646 44.0189 48.5646C36.9502 48.5646 31.1727 43.2802 30.9315 36.6994C32.7296 35.0606 42.9496 26.0861 54.9687 22.2926C55.7798 25.2026 56.3085 28.3736 56.5457 31.7734C56.5795 32.2577 57.0002 32.6234 57.4836 32.5891C57.9679 32.5552 58.3332 32.135 58.2993 31.6507C57.9579 26.7554 56.9879 21.8211 55.1211 17.3534C54.1003 14.9034 51.871 10.1601 51.871 2.76581C51.871 1.24054 50.5782 0 48.9898 0V0ZM27.6484 57.8288C27.6484 58.0563 27.463 58.2422 27.235 58.2422H7.63086C7.11129 58.2422 6.66223 57.9227 6.53817 57.4663C2.05072 40.9044 3.1846 29.3578 5.13238 22.2968C17.1455 26.093 27.3582 35.061 29.1558 36.6994C28.9146 43.2802 23.1371 48.5646 16.0684 48.5646C15.5831 48.5646 15.1894 48.9578 15.1894 49.4435C15.1894 49.9287 15.5831 50.3224 16.0684 50.3224C20.7453 50.3224 24.9233 48.2666 27.6484 45.0609V57.8288ZM52.2486 14.9638C40.7862 14.4241 37.9 14.247 32.102 14.198C32.0992 14.198 32.097 14.198 32.0942 14.198C31.6126 14.198 31.2199 14.5862 31.2158 15.0691C31.2116 15.5548 31.6017 15.9517 32.0873 15.9558C37.8391 16.0043 40.5454 16.1728 52.9522 16.7564C53.2575 17.4861 53.8014 18.6145 54.455 20.6104C45.7928 23.3423 36.5661 29.2653 30.0434 35.1292C23.5162 29.2607 14.2941 23.3432 5.63729 20.6122C6.29144 18.5994 6.8641 17.4046 7.13556 16.7564C19.5117 16.1737 22.2363 16.0043 28.0004 15.9558C28.4857 15.9517 28.8761 15.5548 28.872 15.0691C28.8679 14.5866 28.4751 14.198 27.9931 14.198C27.9904 14.198 27.9881 14.198 27.9853 14.198C22.18 14.247 19.2823 14.4246 7.83868 14.9638C9.33603 10.8389 9.97461 6.85272 9.97461 2.76581C9.97461 2.21008 10.4781 1.75781 11.097 1.75781H48.9898C49.6092 1.75781 50.1127 2.21008 50.1127 2.76581C50.1127 6.85776 50.7531 10.8435 52.2486 14.9638Z" fill="#2D2D2D"/>
</g>
<defs>
<clipPath id="clip0">
<rect width="60" height="60" fill="white"/>
</clipPath>
</defs>
</svg>
